<?xml version="1.0" encoding="UTF-8" standalone="no"?>
<!-- Created with Inkscape (http://www.inkscape.org/) -->

<svg
   width="10.583333mm"
   height="10.583334mm"
   viewBox="0 0 10.583333 10.583334"
   version="1.1"
   id="svg1"
   xmlns="http://www.w3.org/2000/svg"
   xmlns:svg="http://www.w3.org/2000/svg">
  <defs
     id="defs1" />
  <g
     id="layer1"
     transform="translate(-159.80834,-95.77917)">
    <path
       class="ccustom"
       fill-rule="evenodd"
       clip-rule="evenodd"
       d="M 166.56994,98.870903 C 166.13483,98.580178 165.62329,98.425 165.1,98.425 v -2.645833 c 1.04658,0 2.06967,0.310351 2.93989,0.891807 0.87021,0.581454 1.54845,1.407901 1.94897,2.374818 0.4005,0.966918 0.5053,2.030918 0.30112,3.057388 -0.20418,1.02648 -0.70815,1.96938 -1.44822,2.70942 -0.74004,0.74006 -1.68293,1.24404 -2.70941,1.44822 -1.02648,0.20418 -2.09048,0.0994 -3.05739,-0.30112 -0.96692,-0.40053 -1.79337,-1.07876 -2.37482,-1.94898 -0.58146,-0.87021 -0.89181,-1.8933 -0.89181,-2.93989 h 2.64583 c 0,0.5233 0.15518,1.03484 0.44591,1.46995 0.29072,0.43511 0.70395,0.77422 1.18742,0.97449 0.48345,0.20026 1.01544,0.25265 1.52868,0.15054 0.51324,-0.10207 0.98468,-0.35406 1.35472,-0.72408 0.37002,-0.37005 0.62201,-0.84148 0.72409,-1.35472 0.1021,-0.51324 0.0497,-1.04524 -0.15055,-1.52868 -0.20026,-0.483477 -0.53938,-0.896703 -0.97449,-1.187427 z"
       fill="#007dfc"
       id="path1"
       style="stroke-width:0.264583" />
    <path
       class="ccustom"
       fill-rule="evenodd"
       clip-rule="evenodd"
       d="m 162.45416,95.779167 c 0,0.347456 -0.0684,0.69151 -0.2014,1.012518 -0.13296,0.321006 -0.32785,0.61268 -0.57354,0.858369 -0.24569,0.24569 -0.53736,0.440579 -0.85837,0.573545 -0.32101,0.132964 -0.66506,0.201401 -1.01252,0.201401 v 2.64583 c 0.69491,0 1.38302,-0.13687 2.02504,-0.4028 0.64201,-0.26593 1.22537,-0.65571 1.71672,-1.147099 0.49139,-0.491358 0.88117,-1.074711 1.1471,-1.716731 0.26594,-0.642016 0.40281,-1.330123 0.40281,-2.025034 z"
       fill="#007dfc"
       id="path2"
       style="stroke-width:0.264583" />
  </g>
</svg>
