<?xml version="1.0" encoding="UTF-8" standalone="no"?>
<!-- Created with Inkscape (http://www.inkscape.org/) -->

<svg
   width="5.2916665mm"
   height="6.0854168mm"
   viewBox="0 0 5.2916665 6.0854168"
   version="1.1"
   id="svg1"
   xmlns="http://www.w3.org/2000/svg"
   xmlns:svg="http://www.w3.org/2000/svg">
  <defs
     id="defs1" />
  <g
     id="layer1"
     transform="translate(-175.41875,-149.225)">
    <path
       id="Path_4567"
       class="st19"
       d="m 179.78437,154.51667 h -0.92604 c 0,0.43841 -0.35533,0.79375 -0.79375,0.79375 -0.43841,0 -0.79375,-0.35534 -0.79375,-0.79375 h -0.92604 c -0.51144,0 -0.92604,-0.41461 -0.92604,-0.92605 0,-0.51143 0.4146,-0.92604 0.92604,-0.92604 h 0.39688 v 0.52917 h -0.39688 c -0.21907,0 -0.39687,0.1778 -0.39687,0.39687 0,0.21908 0.1778,0.39688 0.39687,0.39688 h 3.43958 c 0.21908,0 0.39688,-0.1778 0.39688,-0.39688 0,-0.21907 -0.1778,-0.39687 -0.39688,-0.39687 h -0.39687 v -0.52917 h 0.39687 c 0.51144,0 0.92605,0.41461 0.92605,0.92604 0,0.51144 -0.41461,0.92605 -0.92605,0.92605 z m -1.71979,-0.26459 c -0.14605,0 -0.26458,0.11854 -0.26458,0.26459 0,0.14605 0.11853,0.26458 0.26458,0.26458 0.14605,0 0.26459,-0.11853 0.26459,-0.26458 0,-0.14605 -0.11854,-0.26459 -0.26459,-0.26459 z M 179.3875,152.4 v 0 -0.52917 c 0,-0.73051 -0.5924,-1.32291 -1.32292,-1.32291 -0.73051,0 -1.32291,0.5924 -1.32291,1.32291 v 0.79375 h -0.52917 v -0.79375 c 7.9e-4,-0.7239 0.42413,-1.38086 1.0832,-1.68063 -0.0167,-0.0556 -0.0249,-0.11351 -0.0249,-0.17145 0,-0.43841 0.35534,-0.79375 0.79375,-0.79375 0.43842,0 0.79375,0.35534 0.79375,0.79375 -5.3e-4,0.0582 -0.009,0.11589 -0.0265,0.17145 0.65961,0.29951 1.08347,0.9562 1.0848,1.68063 v 0.79375 h -0.52917 z m -1.32292,-2.64583 c -0.14605,0 -0.26458,0.11853 -0.26458,0.26458 0,0.14605 0.11853,0.26458 0.26458,0.26458 0.14605,0 0.26459,-0.11853 0.26459,-0.26458 0,-0.14605 -0.11854,-0.26458 -0.26459,-0.26458 z"
       style="fill:#555b6d;fill-rule:evenodd;stroke-width:0.264583" />
  </g>
</svg>
