<svg xmlns="http://www.w3.org/2000/svg" width="20" height="20" viewBox="0 0 20 20">
  <style>
    .st17 { stroke: #333; fill: none; stroke-miterlimit: 10; stroke-linecap: round; stroke-linejoin: round; }
  </style>
  <g id="Group_10199">
    <rect id="Rectangle_4247" class="st17" x="1.065" y="2.522" width="16" height="16" rx="3" ry="3"/>
    <path id="Path_4105" class="st17" d="M6.565,15.022h0c-.828,0-1.5-.672-1.5-1.5v-6c0-.828.672-1.5,1.5-1.5s1.5.672,1.5,1.5v6c0,.828-.672,1.5-1.5,1.5Z"/>
    <path id="Path_4106" class="st17" d="M12.565,15.022h0c-.828,0-1.5-.672-1.5-1.5v-3c0-.828.672-1.5,1.5-1.5s1.5.672,1.5,1.5v3c0,.828-.672,1.5-1.5,1.5Z"/>
  </g>
</svg>