<?xml version="1.0" encoding="UTF-8" standalone="no"?>
<!-- Created with Inkscape (http://www.inkscape.org/) -->

<svg
   width="16.139584mm"
   height="14.2875mm"
   viewBox="0 0 16.139584 14.2875"
   version="1.1"
   id="svg1"
   xmlns="http://www.w3.org/2000/svg"
   xmlns:svg="http://www.w3.org/2000/svg">
  <defs
     id="defs1">
    <clipPath
       id="clippath-2">
      <rect
         class="st5"
         x="124.75"
         y="105.271"
         width="61"
         height="54"
         id="rect3-2" />
    </clipPath>
    <clipPath
       id="clippath-3">
      <rect
         class="st5"
         x="131.75"
         y="112.271"
         width="50"
         height="43"
         id="rect4-4" />
    </clipPath>
  </defs>
  <g
     id="layer1"
     transform="translate(-161.13125,-147.90208)">
    <rect
       class="st5"
       x="161.13126"
       y="147.90208"
       width="16.139584"
       height="14.287499"
       id="rect12"
       style="fill:none;stroke-width:0.264583" />
    <g
       class="st35"
       clip-path="url(#clippath-2)"
       id="g14"
       transform="matrix(0.26458333,0,0,0.26458333,128.12448,120.04913)">
      <g
         id="Group_10340">
        <g
           id="Group_10339"
           class="st38"
           style="opacity:0.2">
          <g
             id="Group_10338">
            <g
               class="st33"
               clip-path="url(#clippath-3)"
               id="g13">
              <g
                 id="Group_10337">
                <path
                   id="Path_4576"
                   class="st30"
                   d="m 181.534,115.156 v 26.284 c -0.002,4.664 -3.783,8.444 -8.447,8.445 h -27.221 v 5.632 l -9.574,-5.632 h -1.689 c -0.96,0.002 -1.913,-0.163 -2.816,-0.488 v -27.671 c 0.002,-5.183 4.203,-9.384 9.386,-9.386 h 39.873 c 0.162,0.439 0.284,0.891 0.366,1.352 v 0.038 c 0.031,0.161 0.053,0.324 0.066,0.488 0.008,0.024 0.011,0.05 0.009,0.075 l 0.028,0.282 c 0.009,0.188 0.019,0.385 0.019,0.582"
                   style="fill:#75b3e7" />
              </g>
            </g>
          </g>
        </g>
        <path
           id="Path_4577"
           class="st12"
           d="m 181.046,112.341 c 0.162,0.439 0.284,0.891 0.366,1.352 v 0.038 c 0.031,0.161 0.053,0.324 0.066,0.488 0.008,0.024 0.011,0.05 0.009,0.075 l 0.028,0.282 c 0.009,0.188 0.019,0.385 0.019,0.582 v 26.28 c 0,4.666 -3.782,8.448 -8.448,8.448 h -27.219 v 5.632 l -9.574,-5.632 h -1.689 c -0.96,0.002 -1.913,-0.163 -2.816,-0.488 -3.377,-1.188 -5.635,-4.38 -5.632,-7.96 v -26.281 c 0,-4.666 3.782,-8.448 8.448,-8.448 h 38.483 c 3.58,-0.003 6.771,2.255 7.959,5.632"
           style="fill:none;stroke:#75b3e7;stroke-width:2px;stroke-linecap:round;stroke-linejoin:round" />
        <path
           id="Path_4578"
           class="st30"
           d="m 186.227,146.131 c 0,7.258 -5.883,13.141 -13.141,13.141 -7.258,0 -13.141,-5.883 -13.141,-13.141 0,-7.258 5.883,-13.141 13.141,-13.141 h 10e-4 c 7.257,0 13.14,5.884 13.14,13.141"
           style="fill:#75b3e7" />
      </g>
    </g>
    <g
       id="Group_10342"
       transform="matrix(0.26458333,0,0,0.26458333,128.12448,120.04913)">
      <path
         id="Path_4579"
         class="st30"
         d="m 142.729,124.327 c 0,2.193 -1.776,3.97 -3.969,3.971 -2.193,0 -3.97,-1.776 -3.971,-3.969 0,-2.193 1.776,-3.97 3.969,-3.971 h 0.002 c 2.192,0 3.968,1.777 3.969,3.969"
         style="fill:#75b3e7" />
      <path
         id="Path_4580"
         class="st30"
         d="m 157.815,124.327 c 0,2.193 -1.776,3.97 -3.969,3.971 -2.193,0 -3.97,-1.776 -3.971,-3.969 0,-2.193 1.776,-3.97 3.969,-3.971 h 0.002 c 2.192,0 3.968,1.777 3.969,3.969"
         style="fill:#75b3e7" />
      <path
         id="Path_4581"
         class="st30"
         d="m 172.901,124.327 c 0,2.193 -1.776,3.97 -3.969,3.971 -2.193,0 -3.97,-1.776 -3.971,-3.969 0,-2.193 1.776,-3.97 3.969,-3.971 h 0.002 c 2.192,0 3.968,1.777 3.969,3.969"
         style="fill:#75b3e7" />
      <path
         id="Path_4582"
         class="st27"
         d="m 176.841,151.763 h -9.511 c -1.002,-0.036 -1.785,-0.875 -1.752,-1.877 v -6.57 c -0.034,-1.002 0.75,-1.842 1.752,-1.878 h 9.636 c 1.002,0.036 1.785,0.875 1.752,1.877 v 6.57 c 0.033,1.002 -0.75,1.841 -1.752,1.877"
         style="fill:#ffffff" />
      <path
         id="Path_4583"
         class="st27"
         d="m 178.718,144.723 1.918,-0.922 c 0.833,-0.33 1.837,0.123 1.837,0.83 v 3.839 c 0,0.708 -1,1.161 -1.837,0.83 l -1.918,-0.823"
         style="fill:#ffffff" />
    </g>
  </g>
</svg>
