<?xml version="1.0" encoding="UTF-8" standalone="no"?>
<!-- Created with Inkscape (http://www.inkscape.org/) -->

<svg
   width="17.393301mm"
   height="15.926807mm"
   viewBox="0 0 17.393301 15.926807"
   version="1.1"
   id="svg1"
   xmlns="http://www.w3.org/2000/svg"
   xmlns:svg="http://www.w3.org/2000/svg">
  <defs
     id="defs1">
    <clipPath
       id="clippath-10">
      <rect
         class="st5"
         x="137.035"
         y="427"
         width="50"
         height="42"
         id="rect11" />
    </clipPath>
  </defs>
  <g
     id="layer1"
     transform="translate(-149.48957,-139.43543)">
    <g
       id="Group_10342"
       transform="matrix(0.26458333,0,0,0.26458333,128.12448,120.04913)">
      <rect
         class="st5"
         x="80.75"
         y="79.466812"
         width="61"
         height="54"
         id="rect20"
         style="fill:none" />
      <g
         id="Group_103701"
         data-name="Group_10370"
         transform="translate(-44.546564,-350.167)">
        <path
           id="Path_45941"
           data-name="Path_4594"
           class="st39"
           d="m 191.035,463.859 c 0,7.258 -5.883,13.141 -13.141,13.141 -7.258,0 -13.141,-5.883 -13.141,-13.141 0,-7.258 5.883,-13.141 13.141,-13.141 h 0.001 c 7.257,0 13.14,5.884 13.14,13.141"
           style="fill:#ff8f6c" />
        <path
           id="Path_45951"
           data-name="Path_4595"
           class="st16"
           d="m 187.282,432.886 v 28.158 c 0,4.666 -3.782,8.448 -8.448,8.448 h -39.421 c -0.235,0 -0.46,-0.009 -0.685,-0.028 -4.385,-0.357 -7.762,-4.02 -7.763,-8.42 v -28.158 c 0,-4.666 3.782,-8.448 8.448,-8.448 h 39.422 c 4.664,0.004 8.444,3.784 8.448,8.448 v 0 z"
           style="fill:none;stroke:#ff8f6c;stroke-width:2px;stroke-miterlimit:10" />
        <g
           id="Group_103691"
           data-name="Group_10369"
           class="st28"
           style="opacity:0.17">
          <g
             id="Group_103681"
             data-name="Group_10368">
            <g
               class="st26"
               clip-path="url(#clippath-10)"
               id="g21">
              <g
                 id="Group_10367-21"
                 data-name="Group_10367-2">
                <path
                   id="Path_45961"
                   data-name="Path_4596"
                   class="st39"
                   d="m 187.28,432.885 v 28.158 c 0,4.666 -3.782,8.448 -8.448,8.448 h -39.421 c -0.235,0 -0.46,-0.009 -0.685,-0.028 -1.375,-1.542 -2.134,-3.537 -2.131,-5.604 v -28.158 c 0,-4.666 3.782,-8.448 8.448,-8.448 h 39.422 c 0.235,0 0.46,0.009 0.685,0.028 1.375,1.541 2.133,3.535 2.131,5.6"
                   style="fill:#ff8f6c" />
              </g>
            </g>
          </g>
        </g>
        <rect
           id="Rectangle_43151"
           data-name="Rectangle_4315"
           class="st16"
           x="154.035"
           y="469"
           width="10"
           height="7"
           style="fill:none;stroke:#ff8f6c;stroke-width:2px;stroke-miterlimit:10" />
        <line
           id="Line_13081"
           data-name="Line_1308"
           class="st8"
           x1="150.035"
           y1="476"
           x2="168.035"
           y2="476"
           style="fill:none;stroke:#ff8f6c;stroke-width:2px;stroke-linecap:round;stroke-miterlimit:10" />
        <path
           id="Path_45971"
           data-name="Path_4597"
           class="st39"
           d="m 146.581,453.234 c 0,1.72 -1.395,3.115 -3.115,3.115 -1.72,0 -3.115,-1.395 -3.115,-3.115 0,-1.72 1.395,-3.115 3.115,-3.115 v 0 c 1.72,0 3.115,1.395 3.115,3.115"
           style="fill:#ff8f6c" />
        <path
           id="Path_45981"
           data-name="Path_4598"
           class="st39"
           d="m 159.043,440.773 c 0,1.72 -1.395,3.115 -3.115,3.115 -1.72,0 -3.115,-1.395 -3.115,-3.115 0,-1.72 1.395,-3.115 3.115,-3.115 v 0 c 1.72,0 3.115,1.395 3.115,3.115"
           style="fill:#ff8f6c" />
        <path
           id="Path_45991"
           data-name="Path_4599"
           class="st39"
           d="m 166.832,449.341 c 0,1.72 -1.395,3.115 -3.115,3.115 -1.72,0 -3.115,-1.395 -3.115,-3.115 0,-1.72 1.395,-3.115 3.115,-3.115 1.72,0 3.115,1.395 3.115,3.115 v 0"
           style="fill:#ff8f6c" />
        <path
           id="Path_46001"
           data-name="Path_4600"
           class="st39"
           d="m 176.956,439.216 c 0,1.72 -1.395,3.115 -3.115,3.115 -1.72,0 -3.115,-1.395 -3.115,-3.115 0,-1.72 1.395,-3.115 3.115,-3.115 1.72,0 3.115,1.395 3.115,3.115 v 0"
           style="fill:#ff8f6c" />
        <path
           id="Path_46011"
           data-name="Path_4601"
           class="st16"
           d="m 143.465,453.235 12.462,-12.464 8.134,8.568 10.213,-10.123"
           style="fill:none;stroke:#ff8f6c;stroke-width:2px;stroke-miterlimit:10" />
        <line
           id="Line_13091"
           data-name="Line_1309"
           class="st9"
           x1="180.446"
           y1="466.53"
           x2="182.673"
           y2="468.53699"
           style="fill:none;stroke:#ffffff;stroke-width:2px;stroke-linecap:round;stroke-miterlimit:10" />
        <path
           id="Path_46021"
           data-name="Path_4602"
           class="st27"
           d="m 176.815,456.682 c -3.247,-0.002 -5.882,2.629 -5.884,5.876 -0.002,3.247 2.629,5.882 5.876,5.884 3.247,0.002 5.881,-2.628 5.884,-5.875 v -0.009 c 0.002,-3.244 -2.626,-5.874 -5.87,-5.876 h -0.006"
           style="fill:#ffffff" />
        <path
           id="Path_46031"
           data-name="Path_4603"
           class="st39"
           d="m 180.537,461.951 c 0,-1.776 -1.439,-3.217 -3.215,-3.218 -0.249,0 -0.498,0.028 -0.74,0.086 -0.104,0.024 -0.179,0.115 -0.181,0.222 -0.003,0.107 0.067,0.202 0.169,0.232 0.764,0.224 1.454,0.648 2,1.227 0.704,0.821 1.132,1.843 1.222,2.921 0.011,0.129 0.124,0.225 0.254,0.215 0.1,-0.008 0.184,-0.079 0.208,-0.177 l 0.225,-0.892 v -0.015 c 0.037,-0.198 0.056,-0.399 0.056,-0.6"
           style="fill:#ff8f6c" />
      </g>
    </g>
  </g>
</svg>
